# xmcd
#
# Track frame offsets: 
#        150
#        25584
#        45168
#        68785
#        98737
#        121202
#        141362
#        169515
#        195724
#        211852
#        226901
#        252173
#        279317
#        309199
#        332527
#
# Disc length: 4638 seconds
#
# Revision: 4
# Processed by: cddbd v1.5.2PL0 Copyright (c) Steve Scherf et al.
# Submitted via: ExactAudioCopyFreeDBPlugin 1.0
#
DISCID=bb121c0f
DTITLE=Various Artist - Most Rated 2005
DYEAR=2005
DGENRE=House
TTITLE0=Kurt Wagner - Xpress 2 - Give It (Extended Club Mix)
TTITLE1=Sunburst Band - He Is (Joey Negro Mix)
TTITLE2=Bah Samba - Isabel Fructuoso - Calma (A Quentin Harris Re-Produ
TTITLE2=ction)
TTITLE3=Julien Jabre - Swimming Places
TTITLE4=Emma - Zoo Brazil - Tonight (Skylark Mix)
TTITLE5=M.A.N.D.Y. - Booka Shade - Body Language
TTITLE6=Lifelike - Kris Menace - Discopolis (Original Mix)
TTITLE7=Art Of Disco By Black Joy - Moustache
TTITLE8=KC Flightt - Playgroup - Front To Back (Kenny Dope Remix)
TTITLE9=Those Guys - I Walk Alone (Original Mix)
TTITLE10=Wahoo - Make Em Shake It (Sandys Blackwiz Club Mix)
TTITLE11=Basement Jaxx - Oh My Gosh (Knee Deep Club Mix)
TTITLE12=Royksopp - 49 Percent (Angello and Ingrosso Mix)
TTITLE13=Goldfrapp - Ooh La La (Tiefschwarz Dub)
TTITLE14=Mylo - Otto's Journey
EXTD=YEAR: 2005
EXTT0=
EXTT1=
EXTT2=
EXTT3=
EXTT4=
EXTT5=
EXTT6=
EXTT7=
EXTT8=
EXTT9=
EXTT10=
EXTT11=
EXTT12=
EXTT13=
EXTT14=
PLAYORDER=
